<?xml version="1.0" standalone="no"?>
<!DOCTYPE svg PUBLIC "-//W3C//DTD SVG 20010904//EN"
 "http://www.w3.org/TR/2001/REC-SVG-20010904/DTD/svg10.dtd">
<svg version="1.0" xmlns="http://www.w3.org/2000/svg"
 width="300.000000pt" height="300.000000pt" viewBox="0 0 300.000000 300.000000"
 preserveAspectRatio="xMidYMid meet">
<metadata>
Created by potrace 1.10, written by Peter Selinger 2001-2011
</metadata>
<g transform="translate(0.000000,300.000000) scale(0.100000,-0.100000)"
fill="#000000" stroke="none">
<path d="M1720 2813 c-37 -38 -80 -132 -80 -176 0 -13 18 -59 39 -104 38 -78
69 -112 119 -127 32 -10 27 -31 -12 -55 -53 -33 -69 -64 -56 -109 5 -20 10
-53 10 -72 0 -19 12 -59 25 -89 24 -50 24 -55 9 -72 -37 -41 -144 -234 -144
-261 0 -53 131 -168 192 -168 37 0 35 -13 -4 -47 -54 -47 -75 -72 -89 -106 -7
-17 -18 -39 -24 -47 -7 -8 -15 -32 -18 -52 -13 -83 -60 -147 -110 -149 -19 -1
-24 -3 -12 -5 60 -13 111 -28 123 -37 8 -7 12 -5 12 6 0 17 41 27 111 27 57 0
68 -19 45 -75 -11 -25 -26 -40 -51 -51 -49 -20 -94 -5 -145 48 -30 30 -51 41
-94 50 -42 9 -53 15 -45 24 7 9 7 19 -1 34 -8 16 -7 25 5 42 23 34 19 85 -10
113 -28 29 -47 31 -104 10 -35 -12 -41 -12 -41 0 0 8 8 19 18 24 10 5 29 30
42 55 22 41 23 46 8 63 -20 23 -14 38 39 93 25 25 52 59 61 75 23 43 28 201 8
290 l-15 70 30 30 c36 38 36 53 2 91 -66 70 -211 136 -281 128 -53 -7 -139
-45 -224 -98 -89 -57 -138 -104 -170 -166 -13 -25 -30 -46 -38 -47 -8 -1 -36
-5 -62 -8 -30 -4 -60 -16 -79 -33 l-32 -26 6 -93 5 -93 -47 0 c-34 0 -53 -5
-64 -18 -50 -55 17 -149 146 -207 53 -23 76 -52 62 -75 -3 -5 -34 -10 -68 -10
-84 0 -283 -18 -327 -30 -19 -5 -52 -12 -72 -15 -46 -7 -81 -34 -73 -57 10
-26 30 -28 118 -13 129 23 141 16 34 -19 -93 -31 -116 -45 -117 -73 0 -30 34
-30 139 -2 119 33 324 69 389 69 32 0 46 -5 60 -22 34 -44 95 -100 148 -135
30 -20 54 -41 54 -48 0 -23 41 -65 64 -65 12 0 25 -3 29 -6 9 -9 -33 -74 -59
-91 -13 -8 -40 -37 -60 -64 -28 -39 -36 -60 -38 -97 l-1 -47 -49 -7 c-84 -12
-91 -26 -91 -182 0 -129 1 -135 24 -155 33 -29 124 -29 191 0 47 20 51 20 112
5 71 -17 111 -23 216 -31 68 -4 75 -3 98 20 22 22 24 32 24 119 0 85 2 96 21
110 12 8 26 13 33 12 6 -2 8 -1 4 1 -5 3 -8 12 -8 21 0 10 -9 32 -20 50 -11
18 -20 35 -20 37 0 3 34 5 75 5 102 0 95 18 -8 22 -76 3 -83 1 -85 -16 0 -11
4 -28 10 -39 5 -11 14 -33 18 -48 7 -25 6 -29 -11 -29 -15 0 -19 7 -19 32 0
36 -20 98 -32 98 -9 0 -11 -14 -2 -23 3 -3 7 -81 8 -173 l1 -167 -110 7 c-101
5 -218 25 -232 39 -11 12 28 200 45 214 9 7 29 22 44 34 l27 20 -11 -31 c-5
-17 -8 -33 -5 -36 8 -8 47 65 41 79 -4 10 8 12 54 9 40 -3 62 0 67 8 5 8 2 10
-11 6 -11 -3 -41 -2 -69 2 -43 7 -26 10 116 21 92 7 185 10 209 6 l43 -7 -8
48 c-4 27 -9 51 -11 54 -3 2 -26 -4 -52 -13 -81 -31 -82 -31 -82 -8 0 12 -6
21 -15 21 -18 0 -20 17 -3 22 8 3 4 12 -10 26 l-21 21 27 20 c35 25 94 48 152
61 l45 9 -53 -4 c-29 -2 -75 -15 -102 -29 l-51 -26 -30 29 c-28 27 -29 30 -11
35 36 12 53 41 54 95 0 28 3 51 7 51 28 0 74 -27 96 -56 14 -19 44 -43 65 -54
34 -17 46 -19 87 -10 63 14 67 17 93 75 12 27 29 54 36 60 11 8 7 11 -18 12
-17 1 -36 9 -40 18 -13 22 -121 21 -143 -1 -13 -14 -21 -15 -41 -5 -28 12 -24
31 7 31 10 0 19 3 20 8 4 42 10 65 25 87 17 26 17 28 1 40 -23 17 -21 25 5 22
19 -2 23 4 29 38 5 28 15 46 35 60 70 49 94 81 94 125 0 41 -1 42 -27 37 -16
-3 -37 -8 -48 -11 -15 -5 -36 8 -87 54 -38 34 -68 67 -68 74 0 13 141 251 159
269 7 7 14 0 21 -19 6 -16 19 -37 27 -46 15 -16 15 -20 0 -36 -9 -10 -22 -34
-28 -53 -7 -19 -22 -46 -35 -61 -39 -48 -39 -64 0 -103 40 -40 50 -41 107 -19
53 22 61 11 56 -76 -3 -51 -13 -84 -47 -152 l-42 -88 7 -83 c9 -118 13 -120
79 -57 64 61 104 134 113 208 5 43 9 52 25 52 14 0 18 -5 14 -17 -2 -10 -8
-34 -11 -53 -11 -55 -53 -128 -102 -181 -56 -60 -43 -65 16 -7 53 53 100 144
108 208 5 41 3 49 -14 59 -28 14 -49 -11 -57 -71 -4 -25 -17 -68 -30 -95 -22
-45 -70 -103 -86 -103 -4 0 -13 27 -20 59 l-12 59 46 101 c40 88 46 109 46
169 0 55 -4 73 -20 90 -24 25 -30 26 -84 11 -34 -9 -41 -8 -60 10 l-20 21 49
95 49 95 -24 48 c-26 53 -26 80 0 133 21 41 21 56 -3 92 -22 34 -22 36 13 72
38 39 62 126 53 191 -4 35 -13 51 -35 67 -16 12 -45 50 -65 86 -34 62 -36 67
-24 108 9 36 8 49 -4 73 -14 26 -42 50 -61 50 -3 0 -23 -17 -44 -37z m72 -18
c9 -19 8 -34 -2 -64 -12 -38 -11 -43 20 -103 19 -35 40 -75 47 -90 10 -18 22
-28 37 -28 30 0 39 -10 24 -27 -8 -10 -8 -20 1 -39 9 -20 8 -31 -4 -54 -8 -16
-15 -39 -15 -52 0 -25 -58 -78 -84 -78 -9 0 -16 -5 -16 -10 0 -13 37 -50 66
-66 19 -11 19 -12 -3 -52 -13 -22 -23 -51 -23 -66 0 -37 -17 -32 -36 12 -29
68 -34 92 -21 119 10 22 8 28 -15 48 l-27 23 22 19 c12 11 38 30 58 42 41 24
75 69 62 81 -4 4 -31 15 -59 24 -64 21 -84 42 -123 133 l-31 72 18 48 c22 58
69 133 82 133 6 0 16 -11 22 -25z m-372 -580 c36 -16 77 -42 92 -57 14 -15 31
-28 37 -28 6 0 11 -8 11 -19 0 -36 -67 -50 -124 -26 -35 15 -12 -19 26 -38 32
-16 38 -24 47 -70 29 -152 21 -262 -24 -327 -13 -19 -47 -59 -75 -88 -40 -41
-55 -50 -68 -43 -9 5 -48 12 -87 16 -121 12 -339 65 -396 96 -23 12 -25 52 -4
69 11 9 22 10 42 2 115 -44 507 -98 547 -75 14 7 -6 12 -75 17 -116 9 -326 47
-442 81 -48 14 -91 25 -95 25 -10 0 -35 -118 -27 -130 9 -14 182 -66 300 -90
55 -12 148 -24 208 -27 74 -4 107 -10 107 -18 0 -7 -17 -31 -37 -53 l-38 -41
-85 9 c-176 20 -451 90 -551 140 -64 33 -119 90 -119 124 0 23 2 24 80 21 44
-1 80 -1 80 0 0 1 -6 18 -14 36 -17 42 -30 140 -22 167 9 29 56 44 120 40 l56
-3 16 49 c29 85 121 167 277 242 88 43 139 43 237 -1z m-554 -753 c6 -4 16
-29 23 -56 24 -97 76 -171 158 -225 67 -45 76 -38 12 8 -78 56 -130 135 -144
216 l-6 40 35 -40 c87 -97 118 -124 163 -139 69 -24 105 -20 201 20 48 20 109
42 135 50 47 12 48 12 58 -12 12 -34 2 -71 -22 -77 -25 -7 -25 -37 0 -44 27
-7 15 -33 -14 -33 -30 0 -55 -10 -55 -21 0 -5 14 -6 32 -2 40 8 58 -15 58 -75
l0 -45 -88 7 c-48 3 -127 17 -175 30 -48 12 -89 21 -92 18 -12 -13 -3 -22 23
-22 35 0 102 -19 102 -28 0 -5 -5 -13 -10 -18 -7 -7 11 -14 57 -23 80 -14 173
-56 173 -78 0 -8 -3 -13 -8 -11 -4 2 -32 15 -62 30 -30 15 -89 33 -130 39 -41
7 -76 13 -78 15 -2 1 1 12 8 23 10 20 9 21 -56 21 -49 0 -65 3 -61 13 19 52
19 57 -9 67 -70 27 -214 156 -214 192 0 19 -314 -30 -467 -73 -102 -29 -160
-34 -98 -9 99 39 405 100 504 100 44 0 44 0 35 24 -12 31 -303 18 -502 -21
-71 -14 -106 -13 -91 1 15 15 279 48 417 53 144 5 162 8 157 22 -4 9 -9 28
-12 44 -4 22 -2 27 13 27 11 0 24 -4 30 -8z m234 -72 c19 -5 62 -13 95 -16 33
-4 67 -8 75 -10 8 -1 33 -3 55 -4 l40 -1 -70 -35 c-77 -38 -125 -43 -183 -18
-36 15 -102 70 -102 86 0 11 48 10 90 -2z m310 -472 c36 -18 65 -38 65 -43 0
-6 -9 -22 -21 -37 l-21 -27 -128 33 c-123 31 -128 34 -131 60 -2 16 5 35 15
45 27 27 136 11 221 -31z m-258 -33 c-2 -14 -9 -25 -14 -25 -6 0 -7 -11 -4
-25 5 -19 3 -23 -9 -19 -12 5 -15 1 -11 -19 2 -15 -1 -28 -7 -30 -8 -2 -6 -9
6 -21 13 -13 14 -22 7 -36 -8 -16 -15 -17 -42 -9 -55 15 -61 28 -37 77 18 36
100 132 112 132 2 0 2 -11 -1 -25z m64 -36 c39 -10 44 -14 38 -33 -4 -11 -11
-27 -16 -33 -6 -7 -8 -19 -5 -27 5 -12 1 -13 -23 -4 -20 6 -35 6 -47 -1 -15
-9 -12 -11 17 -11 19 -1 44 -5 55 -9 19 -8 19 -8 -4 -16 -19 -6 -22 -12 -17
-36 4 -22 1 -31 -14 -39 -17 -9 -22 -5 -40 29 -11 22 -20 57 -20 78 0 39 17
113 26 113 3 0 25 -5 50 -11z m283 -43 l-2 -53 -75 -7 c-41 -3 -90 -6 -108 -6
-33 0 -33 0 -22 33 6 17 14 36 19 41 7 7 53 0 119 -19 9 -3 25 9 39 30 13 19
25 35 27 35 2 0 3 -24 3 -54z m179 -33 c-2 -20 -6 -23 -28 -18 -14 4 -26 11
-28 16 -2 5 -8 9 -13 9 -4 0 -6 -7 -3 -15 5 -11 0 -14 -20 -13 -14 1 -26 6
-26 10 0 12 37 28 64 28 14 0 26 4 26 10 0 5 7 7 15 4 8 -4 14 -17 13 -31z
m-650 -103 c-7 -11 -16 -20 -20 -20 -5 0 -8 9 -8 20 0 13 7 20 20 20 18 0 19
-2 8 -20z m-48 -30 c0 -5 9 -10 20 -10 11 0 20 4 20 10 0 8 128 3 139 -6 3 -2
-20 -147 -34 -210 -6 -27 -111 -73 -151 -67 -80 12 -73 -2 -71 148 1 82 -2
137 -8 139 -5 3 11 5 38 5 26 1 47 -3 47 -9z"/>
<path d="M1761 2625 c-1 -11 11 -33 25 -50 l26 -30 -20 35 c-11 19 -22 42 -25
50 -4 11 -6 9 -6 -5z"/>
<path d="M1308 2101 c32 -66 25 -112 -25 -158 -38 -36 -37 -41 7 -18 37 19 70
62 70 92 0 29 -31 92 -58 116 -17 15 -16 11 6 -32z"/>
<path d="M865 1840 c-9 -28 -15 -54 -12 -56 3 -3 13 18 22 46 9 28 15 54 12
56 -3 3 -13 -18 -22 -46z"/>
<path d="M1004 510 c0 -58 1 -81 3 -52 2 28 2 76 0 105 -2 28 -3 5 -3 -53z"/>
<path d="M2140 1952 c-53 -8 -43 -22 18 -22 82 0 112 -14 113 -54 3 -98 -27
-201 -71 -241 -16 -14 -18 -11 -30 42 -7 32 -16 63 -20 68 -4 6 -20 51 -36
100 -20 65 -29 83 -32 64 -3 -26 71 -263 90 -286 15 -18 60 8 77 44 7 15 18
37 24 48 13 25 22 145 13 179 -10 39 -83 69 -146 58z"/>
<path d="M1757 1236 c-4 -10 4 -15 24 -18 33 -5 38 6 10 22 -25 13 -28 13 -34
-4z"/>
<path d="M1635 946 c-22 -7 -55 -20 -72 -30 -27 -13 -31 -20 -23 -34 6 -9 14
-29 19 -44 l10 -26 58 24 c32 13 68 24 80 24 12 0 24 4 28 9 5 10 -31 6 -70
-6 -11 -4 -25 -8 -31 -9 -6 -1 -21 -5 -32 -8 -14 -5 -25 0 -36 16 -9 12 -16
26 -16 30 0 8 40 28 70 34 8 2 33 10 55 18 49 18 16 20 -40 2z"/>
<path d="M1713 842 c-6 -4 -9 -19 -6 -34 5 -25 9 -27 43 -25 41 2 45 17 4 17
-26 0 -32 18 -12 38 9 9 9 12 -2 12 -8 0 -20 -4 -27 -8z"/>
<path d="M1733 740 c-13 -5 -23 -14 -23 -19 0 -5 -3 -16 -6 -24 -3 -10 10 -23
40 -40 25 -14 46 -22 46 -17 0 5 -8 11 -19 15 -10 3 -26 14 -35 24 -17 18 -16
20 21 45 28 19 32 26 18 25 -11 0 -30 -4 -42 -9z"/>
<path d="M1428 683 c-14 -16 -31 -37 -37 -48 -11 -19 -12 -19 -6 3 9 31 -2 27
-20 -8 -20 -39 -19 -42 13 -38 20 2 28 9 30 28 2 14 7 29 11 33 4 4 6 -6 3
-23 -3 -21 0 -30 10 -30 7 0 14 10 15 23 1 12 5 37 8 55 3 17 4 32 2 32 -2 0
-15 -12 -29 -27z"/>
<path d="M1619 683 l-46 -4 20 -39 c23 -47 31 -51 22 -11 -6 26 -3 30 24 36
17 3 40 1 53 -6 l23 -11 -22 21 c-12 11 -23 20 -25 19 -2 -1 -24 -3 -49 -5z"/>
</g>
</svg>
