<?xml version="1.0" standalone="no"?>
<!DOCTYPE svg PUBLIC "-//W3C//DTD SVG 20010904//EN"
 "http://www.w3.org/TR/2001/REC-SVG-20010904/DTD/svg10.dtd">
<svg version="1.0" xmlns="http://www.w3.org/2000/svg"
 width="300.000000pt" height="300.000000pt" viewBox="0 0 300.000000 300.000000"
 preserveAspectRatio="xMidYMid meet">
<metadata>
Created by potrace 1.10, written by Peter Selinger 2001-2011
</metadata>
<g transform="translate(0.000000,300.000000) scale(0.100000,-0.100000)"
fill="#000000" stroke="none">
<path d="M0 1500 l0 -1500 1500 0 1500 0 0 1500 0 1500 -1500 0 -1500 0 0
-1500z m1814 1296 c15 -31 17 -43 8 -57 -19 -30 -14 -56 26 -129 26 -48 46
-72 67 -82 29 -13 30 -15 28 -73 -4 -119 -11 -142 -60 -184 l-44 -40 25 -16
c36 -24 48 -65 26 -88 -10 -10 -22 -36 -28 -58 -9 -34 -7 -45 17 -89 23 -45
25 -52 12 -72 -8 -13 -21 -36 -28 -53 -8 -16 -18 -37 -24 -45 -42 -69 -42 -69
-12 -100 l28 -29 43 19 c42 19 45 19 67 2 22 -15 24 -25 25 -91 0 -66 -4 -83
-43 -165 -45 -96 -45 -98 -33 -190 l8 -58 42 41 c52 51 82 109 91 176 10 71
54 114 69 67 29 -90 -73 -260 -194 -324 -25 -14 -44 -30 -42 -37 1 -7 -4 -19
-13 -27 -8 -9 -15 -24 -15 -34 0 -38 -124 -55 -170 -23 -13 9 -37 32 -53 50
-24 27 -77 53 -109 53 -5 0 -8 -24 -8 -53 0 -66 -18 -86 -72 -83 -21 2 -38 0
-37 -3 0 -3 23 -21 52 -39 l51 -33 51 24 c55 27 137 48 173 45 37 -4 25 -18
-16 -18 -52 0 -121 -22 -179 -56 -32 -19 -42 -29 -32 -32 18 -3 34 -42 18 -42
-5 0 -9 -4 -9 -10 0 -5 7 -10 15 -10 8 0 15 -9 15 -20 0 -25 -2 -25 70 4 33
14 62 20 65 15 3 -4 9 -32 12 -60 4 -38 3 -50 -5 -45 -17 10 -181 23 -176 14
3 -4 -21 -8 -53 -9 -32 -1 -85 -4 -118 -8 l-60 -7 38 -8 c21 -5 51 -6 68 -2
20 4 28 2 23 -5 -4 -7 -29 -10 -66 -7 -46 3 -58 1 -54 -9 6 -14 -33 -87 -41
-79 -3 3 0 19 5 36 l11 31 -27 -20 c-15 -12 -35 -27 -44 -34 -17 -14 -56 -202
-45 -214 14 -14 131 -34 232 -39 l110 -7 -2 168 c-1 92 -4 169 -7 173 -9 8 -7
22 2 22 13 0 32 -63 32 -103 0 -28 3 -35 15 -31 19 8 19 37 1 73 -19 35 -17
74 2 66 7 -3 45 -5 83 -5 48 0 69 -4 69 -12 0 -9 -22 -13 -75 -13 -77 0 -86
-4 -60 -25 8 -7 17 -27 21 -46 3 -19 11 -34 16 -34 15 0 1 63 -18 77 -12 9 -4
12 43 15 53 3 62 0 120 -38 34 -23 60 -44 57 -47 -4 -3 -33 12 -65 33 -46 32
-63 39 -88 34 -27 -6 -30 -10 -28 -43 2 -33 0 -36 -25 -36 -16 1 -28 -2 -28
-6 0 -4 -9 -9 -20 -12 -18 -5 -20 -14 -20 -105 0 -136 -1 -137 -152 -123 -62
6 -126 14 -143 17 -16 4 -37 8 -45 9 -8 1 -23 6 -33 10 -11 5 -39 -2 -75 -18
-53 -23 -98 -27 -166 -14 -31 6 -38 37 -34 173 3 153 9 164 79 164 45 0 61 18
63 69 3 46 43 109 98 154 21 17 38 36 38 43 0 6 7 14 15 18 8 3 15 14 15 24 0
15 -8 19 -35 19 -43 0 -59 14 -60 50 0 22 -9 32 -45 52 -25 13 -78 58 -118 99
l-73 74 -62 -7 c-34 -4 -71 -9 -82 -11 -11 -2 -42 -6 -70 -9 -27 -4 -83 -16
-125 -27 -41 -11 -84 -21 -95 -23 -11 -2 -41 -9 -68 -16 -40 -11 -49 -11 -61
1 -12 12 -12 18 -2 32 13 18 140 57 285 87 51 11 95 22 98 25 7 7 -91 -3 -222
-21 -185 -27 -191 -27 -199 -8 -3 10 -2 23 4 30 21 25 272 62 455 68 88 2 90
3 91 27 1 41 -5 47 -64 71 -124 50 -201 150 -150 195 13 13 36 19 71 19 50 0
52 1 47 25 -2 14 -4 58 -5 99 0 69 2 75 28 94 19 15 47 22 90 25 l63 4 18 47
c24 57 45 82 121 136 70 50 150 94 219 119 42 16 56 17 100 7 107 -24 246
-113 246 -158 0 -24 -21 -49 -49 -58 -19 -6 -19 -8 -5 -48 21 -59 30 -233 15
-293 -9 -36 -29 -67 -73 -117 -59 -66 -60 -68 -42 -88 17 -19 17 -21 -4 -64
-30 -63 -65 -79 -156 -70 -70 6 -158 19 -206 31 -92 22 -97 18 -45 -43 74 -86
174 -102 295 -46 66 31 91 39 151 48 30 5 37 2 52 -24 21 -36 22 -79 2 -101
-22 -24 1 -70 30 -60 10 4 36 4 56 0 28 -5 36 -4 32 6 -3 7 6 24 20 38 14 14
28 39 32 55 4 17 11 33 16 36 5 4 5 14 -1 26 -9 15 -6 24 13 42 13 12 27 34
30 48 6 24 25 44 96 101 11 10 21 29 21 42 0 23 -3 24 -34 19 -27 -4 -42 0
-72 23 -56 43 -110 96 -118 118 -6 19 41 110 125 238 l38 58 -26 56 c-18 41
-24 65 -20 91 5 27 1 43 -14 64 -19 27 -19 30 -3 54 9 14 31 33 48 42 35 18
66 43 66 54 0 4 -21 14 -47 23 -60 21 -84 48 -123 143 -36 86 -35 109 6 188
55 104 94 120 128 51z m-254 -590 c0 -2 -7 -7 -16 -10 -8 -3 -12 -2 -9 4 6 10
25 14 25 6z m690 -271 c17 -9 33 -27 36 -41 10 -40 -2 -151 -19 -178 -12 -17
-13 -26 -4 -35 8 -8 8 -11 -1 -11 -7 0 -25 -14 -41 -32 -24 -27 -31 -30 -44
-20 -8 7 -21 36 -27 65 -7 29 -16 57 -21 63 -11 14 -41 121 -45 164 -2 20 10
-6 28 -60 17 -52 34 -97 38 -100 4 -3 14 -34 22 -70 l14 -65 32 50 c40 61 52
103 52 182 0 60 -1 61 -31 72 -18 6 -56 11 -86 11 -34 0 -52 4 -48 10 10 15
113 12 145 -5z m183 -572 c-7 -2 -21 -2 -30 0 -10 3 -4 5 12 5 17 0 24 -2 18
-5z m110 -10 c-7 -2 -21 -2 -30 0 -10 3 -4 5 12 5 17 0 24 -2 18 -5z m60 -10
c-7 -2 -19 -2 -25 0 -7 3 -2 5 12 5 14 0 19 -2 13 -5z m104 -19 c-3 -3 -12 -4
-19 -1 -8 3 -5 6 6 6 11 1 17 -2 13 -5z m-514 -11 c-7 -2 -21 -2 -30 0 -10 3
-4 5 12 5 17 0 24 -2 18 -5z m80 -10 c-7 -2 -21 -2 -30 0 -10 3 -4 5 12 5 17
0 24 -2 18 -5z m64 -9 c-3 -3 -12 -4 -19 -1 -8 3 -5 6 6 6 11 1 17 -2 13 -5z
m160 -30 c-3 -3 -12 -4 -19 -1 -8 3 -5 6 6 6 11 1 17 -2 13 -5z m150 -40 c-3
-3 -12 -4 -19 -1 -8 3 -5 6 6 6 11 1 17 -2 13 -5z m38 -14 c3 -6 -1 -7 -9 -4
-18 7 -21 14 -7 14 6 0 13 -4 16 -10z m-980 -260 c-98 -26 -148 -45 -152 -57
-2 -5 4 -20 14 -32 16 -20 22 -21 48 -11 66 26 142 39 174 31 21 -6 16 -9 -31
-14 -32 -4 -87 -18 -123 -31 l-65 -24 -20 45 c-11 25 -20 47 -20 48 0 4 102
43 140 54 19 5 51 9 70 10 27 0 19 -4 -35 -19z m85 -101 c-14 -6 -33 -12 -44
-15 -24 -5 -30 -10 -21 -23 3 -6 19 -11 34 -11 15 0 36 -7 47 -16 10 -8 13
-12 5 -8 -7 3 -32 6 -56 6 -38 -1 -44 2 -50 25 -3 14 -2 29 2 34 8 7 48 15 88
17 16 1 15 -1 -5 -9z m-2 -86 c-10 -2 -26 -2 -35 0 -10 3 -2 5 17 5 19 0 27
-2 18 -5z m16 -22 c3 -5 -12 -11 -33 -15 -24 -3 -41 -13 -45 -23 -4 -10 -4
-19 1 -20 23 -8 73 -44 73 -53 0 -5 -21 4 -47 21 -27 16 -48 34 -47 39 1 6 2
17 3 25 2 26 82 48 95 26z m-339 -59 c-7 -2 -15 -21 -19 -43 -3 -21 -11 -39
-16 -39 -13 0 -13 22 1 57 8 21 7 25 -1 16 -7 -6 -15 -26 -19 -45 -5 -27 -12
-34 -35 -36 -25 -3 -27 -1 -20 20 9 29 35 70 41 64 3 -2 -1 -14 -7 -26 -6 -11
-9 -26 -6 -33 2 -7 5 -4 5 5 1 10 15 33 32 52 24 28 33 33 44 23 10 -10 10
-13 0 -15z"/>
<path d="M1733 2778 c-15 -24 -35 -65 -45 -91 l-18 -48 26 -62 c42 -96 64
-119 128 -141 31 -11 59 -23 62 -28 8 -13 -27 -57 -65 -80 -20 -12 -45 -31
-57 -42 l-21 -19 26 -22 c22 -20 24 -26 14 -48 -13 -28 -7 -57 23 -119 21 -44
34 -49 34 -12 0 15 10 44 23 66 22 40 22 41 3 52 -29 16 -66 53 -66 66 0 5 7
10 16 10 26 0 84 53 84 78 0 13 7 36 15 52 12 23 13 34 4 54 -9 19 -9 29 -1
39 15 17 6 27 -24 27 -15 0 -27 10 -37 28 -7 15 -28 55 -47 90 -31 60 -32 65
-20 103 11 32 11 44 0 64 -7 14 -17 25 -22 25 -4 0 -20 -19 -35 -42z m70 -205
c15 -24 27 -47 27 -52 0 -5 10 -16 23 -24 l22 -16 -22 0 c-13 -1 -23 3 -23 7
0 5 -16 34 -35 66 -22 36 -35 70 -34 90 l1 31 7 -30 c4 -16 20 -49 34 -72z"/>
<path d="M1183 2216 c-156 -75 -248 -157 -277 -242 l-16 -49 -56 3 c-75 5
-112 -11 -120 -52 -8 -47 12 -142 41 -193 14 -23 22 -43 17 -43 -5 0 -13 10
-19 22 -8 19 -18 22 -86 23 -75 2 -77 2 -77 -21 0 -39 59 -95 138 -131 83 -39
337 -106 457 -122 165 -21 161 -21 188 8 22 23 47 63 47 74 0 2 -48 7 -107 10
-60 3 -155 15 -213 27 -120 25 -286 76 -295 91 -5 7 12 115 20 127 1 1 63 -13
137 -32 146 -38 380 -76 465 -76 44 0 55 4 68 23 28 43 38 133 26 234 -13 110
-24 138 -62 153 -15 7 -30 19 -33 27 -5 11 -2 13 11 8 35 -15 58 -16 86 -6 32
12 48 42 26 50 -8 2 -25 16 -39 30 -34 37 -145 84 -205 88 -42 4 -62 -2 -122
-31z m158 -138 c25 -48 24 -79 -2 -112 -18 -23 -67 -56 -84 -56 -4 0 9 15 28
33 50 46 57 92 25 158 -22 43 -23 47 -6 32 11 -10 29 -35 39 -55z m-466 -248
c-10 -33 -22 -60 -26 -60 -5 0 -4 11 1 24 4 13 14 43 20 66 6 23 14 39 17 36
4 -3 -2 -33 -12 -66z"/>
<path d="M1797 1983 c-63 -102 -137 -230 -137 -239 0 -9 45 -55 113 -114 27
-23 28 -23 63 -7 44 21 54 16 54 -31 0 -46 -18 -73 -75 -112 -36 -25 -45 -38
-52 -73 -7 -34 -13 -42 -31 -41 -26 1 -28 -5 -5 -21 16 -12 16 -14 -1 -39 -9
-15 -19 -41 -21 -58 -2 -16 -5 -31 -7 -32 -2 -1 -14 -7 -28 -12 l-25 -11 23
-12 c18 -10 27 -9 44 4 30 21 136 21 144 0 4 -8 15 -15 26 -15 12 0 17 -4 12
-11 -16 -26 80 38 116 77 49 53 76 107 94 184 13 56 13 60 -4 60 -14 0 -19
-11 -24 -55 -7 -62 -19 -93 -58 -151 -34 -52 -109 -109 -119 -92 -4 6 -11 49
-14 95 l-7 83 42 88 c34 68 44 101 47 152 5 87 -3 98 -56 76 -58 -23 -67 -21
-108 20 l-37 37 22 36 c12 20 31 56 43 81 12 25 28 53 36 62 14 15 13 20 -6
44 -12 15 -21 33 -21 40 0 29 -21 23 -43 -13z m36 -88 c-3 -9 -8 -14 -10 -11
-3 3 -2 9 2 15 9 16 15 13 8 -4z m-39 -80 c-9 -14 -18 -25 -21 -25 -5 0 5 18
20 38 17 22 18 13 1 -13z m-63 -112 l24 -28 -30 25 c-16 14 -32 26 -34 28 -2
1 0 2 6 2 5 0 20 -12 34 -27z m216 -135 c-3 -8 -6 -5 -6 6 -1 11 2 17 5 13 3
-3 4 -12 1 -19z m-47 -118 c-24 -49 -45 -88 -47 -86 -5 5 81 185 86 180 2 -2
-16 -44 -39 -94z m-76 -195 c-5 -12 -10 -13 -20 -4 -19 15 -18 19 6 19 13 0
18 -5 14 -15z m-14 -34 c0 -4 -14 -6 -30 -3 -24 3 -28 7 -19 18 8 10 16 11 30
3 10 -5 19 -13 19 -18z"/>
<path d="M841 1701 c-15 -27 -14 -71 2 -75 6 -2 21 -7 32 -12 11 -4 22 -8 25
-9 3 -1 12 -4 20 -7 36 -14 239 -59 285 -64 28 -3 74 -9 103 -13 58 -9 59 -9
119 59 l41 45 -97 2 c-53 0 -109 4 -126 7 -16 4 -52 11 -80 16 -27 4 -66 11
-85 15 -19 3 -64 14 -100 25 -115 33 -127 34 -139 11z"/>
<path d="M823 1443 c3 -16 8 -35 12 -44 5 -14 -13 -17 -152 -22 -156 -6 -399
-40 -417 -58 -14 -12 -7 -12 114 11 67 13 171 22 285 26 172 6 181 5 192 -13
11 -19 8 -20 -73 -27 -139 -10 -460 -81 -488 -107 -17 -15 12 -10 98 16 160
48 477 98 484 76 15 -45 131 -149 206 -185 37 -18 38 -21 20 -71 -3 -6 22 -11
58 -13 70 -3 76 -5 58 -27 -7 -9 -11 -17 -9 -19 2 -1 38 -8 79 -15 41 -6 100
-24 130 -39 30 -15 58 -28 62 -30 5 -2 8 3 8 10 0 20 -99 66 -175 79 -60 12
-64 14 -50 29 15 16 12 18 -29 29 -25 6 -57 11 -71 11 -15 0 -25 5 -23 11 5
14 6 14 106 -10 48 -12 123 -23 167 -24 l80 -2 3 31 c2 16 -2 43 -8 58 -9 25
-15 28 -45 24 -36 -4 -47 5 -19 16 9 3 26 6 39 6 29 0 41 26 14 33 -25 7 -25
37 0 44 20 5 29 32 23 72 -3 22 -7 23 -47 18 -23 -4 -80 -23 -126 -43 -102
-45 -151 -52 -217 -30 -51 17 -101 59 -161 136 -41 51 -49 40 -26 -33 22 -70
74 -139 137 -182 29 -19 48 -35 43 -35 -21 0 -113 70 -143 108 -34 43 -65 108
-77 162 -8 38 -20 50 -49 50 -15 0 -17 -5 -13 -27z"/>
<path d="M1731 1173 c-13 -3 -26 -13 -28 -24 -4 -13 -9 -16 -17 -10 -23 19
-133 35 -158 24 -23 -12 -23 -12 6 -12 51 -2 103 -23 117 -48 28 -52 119 -80
171 -52 24 13 51 74 43 99 -8 25 -67 35 -134 23z"/>
<path d="M1182 944 c-5 -11 -9 -30 -7 -44 1 -22 11 -26 129 -57 l128 -33 22
27 c11 15 21 32 21 38 0 5 -30 25 -67 44 -53 27 -82 35 -141 39 -66 4 -76 2
-85 -14z"/>
<path d="M1108 867 c-24 -24 -53 -64 -65 -88 -25 -50 -20 -63 35 -78 27 -8 34
-7 42 9 7 14 6 23 -5 34 -17 17 -20 30 -5 21 7 -4 9 5 5 25 -5 26 -3 31 10 26
12 -4 14 0 9 19 -3 14 -2 25 4 25 5 0 12 11 14 25 3 14 4 25 2 25 -1 0 -22
-20 -46 -43z m-27 -142 c34 -16 34 -16 4 -10 -16 4 -34 11 -39 16 -14 13 -3
11 35 -6z"/>
<path d="M1151 823 c-16 -58 -13 -110 9 -154 18 -34 23 -38 40 -29 23 12 24
15 10 40 -9 16 -6 22 17 34 l28 14 -37 7 c-21 4 -45 5 -53 1 -8 -3 -15 -1 -15
4 0 15 36 21 64 10 19 -7 25 -7 21 1 -4 5 1 26 10 45 19 41 21 37 -24 53 -52
17 -59 14 -70 -26z m69 -97 c0 -2 -11 -6 -25 -8 -14 -3 -25 -1 -25 3 0 5 11 9
25 9 14 0 25 -2 25 -4z"/>
<path d="M1481 843 c-32 -54 -32 -54 -104 -34 l-66 18 -15 -43 -15 -44 33 0
c18 0 66 3 107 6 l74 7 1 53 c0 30 -1 54 -3 54 -1 0 -7 -8 -12 -17z m-92 -89
c10 -9 -35 -3 -49 6 -11 8 -7 9 15 4 17 -4 32 -8 34 -10z"/>
<path d="M1651 788 c6 -10 7 -23 4 -28 -3 -6 1 -10 9 -10 11 0 16 9 16 29 0
23 -4 29 -19 28 -16 -1 -18 -5 -10 -19z"/>
<path d="M1526 782 c-3 -6 -1 -14 5 -17 15 -10 25 3 12 16 -7 7 -13 7 -17 1z"/>
<path d="M1578 779 c-25 -14 -22 -24 6 -27 19 -1 24 3 23 18 -1 23 -5 24 -29
9z"/>
<path d="M1625 779 c-10 -15 3 -25 16 -12 7 7 7 13 1 17 -6 3 -14 1 -17 -5z"/>
<path d="M1248 708 c-10 -9 -14 -19 -10 -22 13 -8 34 10 30 25 -2 12 -6 11
-20 -3z"/>
<path d="M1010 680 c-15 -15 -19 -25 -12 -28 7 -2 19 4 28 12 8 9 14 21 12 28
-3 7 -13 3 -28 -12z"/>
<path d="M1110 669 c0 -5 5 -7 10 -4 6 3 10 8 10 11 0 2 -4 4 -10 4 -5 0 -10
-5 -10 -11z"/>
<path d="M905 640 c11 -5 14 -9 8 -9 -18 -1 -18 -237 0 -244 6 -3 3 -6 -8 -7
-20 -1 -20 -1 0 -10 28 -12 75 -12 75 0 0 6 9 10 21 10 11 0 17 -5 14 -10 -4
-6 -11 -8 -16 -5 -5 4 -9 1 -9 -5 0 -7 6 -10 13 -7 102 43 118 52 122 71 14
63 37 208 34 210 -10 8 -139 13 -139 5 0 -5 -9 -9 -20 -9 -11 0 -20 5 -20 10
0 6 -21 10 -47 9 -36 0 -43 -3 -28 -9z m102 -187 c-2 -32 -3 -6 -3 57 0 63 1
89 3 58 2 -32 2 -84 0 -115z m-50 -5 c-2 -29 -3 -8 -3 47 0 55 1 79 3 53 2
-26 2 -71 0 -100z"/>
</g>
</svg>
